<svg xmlns="http://www.w3.org/2000/svg" viewBox="0 0 32 32" width="32" height="32" aria-hidden="true">
  <ellipse cx="16" cy="18" rx="11" ry="10" fill="#ff6f00" stroke="#e65100" stroke-width="0.8"/>
  <ellipse cx="10" cy="18" rx="4" ry="9" fill="#ff8f00" opacity="0.6"/>
  <ellipse cx="22" cy="18" rx="4" ry="9" fill="#ff8f00" opacity="0.6"/>
  <path fill="#2e7d32" d="M14 8c0-2 1-3 2-4 1 1 2 2 2 4h-4z"/>
  <path fill="#1b5e20" d="M16 4c1 0 2 1 2 2v2h-4V6c0-1 1-2 2-2z"/>
  <path fill="#4a148c" d="M11 14h2v3h-2zm8 0h2v3h-2zm-5 4h4v2h-4z"/>
</svg>
