<svg xmlns="http://www.w3.org/2000/svg" viewBox="0 0 32 32" width="32" height="32" aria-hidden="true">
  <path fill="#4dd0e1" stroke="#00838f" stroke-width="0.8" d="M16 3c-3.5 0-6 2.5-6.5 6-.3 2.5.5 5 1.5 7.5 1 2.5 1.5 5 1.5 8 0 2.5-1 4.5-2.5 6-1 1.5-1 3.5 0 5 .5 1 1.5 1.5 2.5 1 1-.5 1.5-1.5 1.5-2.5 0-2 1-3.5 2-5.5 1-2 2-4.5 2-7.5 0-2.5-.5-4.5-1.5-6.5-1-2.5-1.5-5-1.5-7.5C10 5.5 12.5 3 16 3z"/>
  <path fill="#b2ebf2" d="M16 6c2 0 3.5 1.5 4 4 .3 1.5 0 3-.5 4.5-.5 1.5-1 3-1 4.5 0 1.5.5 2.5 1 3.5.5 1 1 2 1 3 0 1-.5 1.5-1 2-.5.5-1 .5-1.5 0-2-.5-1-1-2-1-3.5 0-1.5.5-3 1-4.5.5-1.5.8-3 .5-4.5-.5-2.5-2-4-4-4z"/>
</svg>
